<svg width="168" height="40" fill="none" xmlns="http://www.w3.org/2000/svg"><g clip-path="url(#clip0)"><path fill-rule="evenodd" clip-rule="evenodd" d="M50.957.03l-.925 5.696H38.816l-6.269 34.11-6.362.051 6.282-34.16H.004L.929.03h50.028zM17.371 5.727l5.652 4.306-6.635 29.776-6.617.029 7.6-34.11zm63.15 8.558l9.76 25.349h-5.995L78.11 23.659l-5.85 15.927-5.991.047L75.556 14.3l4.965-.017zm76.713 0l9.786 25.349h-6.031l-1.188-3.077h-9.719l-1.131 3.077h-5.994l9.312-25.332 4.965-.017zm-104.427.034c6.98 0 12.657 5.679 12.657 12.658 0 6.98-5.677 12.657-12.657 12.657-6.979 0-12.657-5.678-12.657-12.657 0-6.98 5.678-12.658 12.657-12.658zm79.369-.275c2.834 0 5.512.915 7.746 2.646l-3.487 4.501a6.897 6.897 0 0 0-4.259-1.452 6.969 6.969 0 0 0-6.961 6.962c0 3.838 3.122 6.962 6.961 6.962a6.942 6.942 0 0 0 4.697-1.823l3.843 4.203a12.628 12.628 0 0 1-8.54 3.315c-6.979 0-12.657-5.678-12.657-12.657 0-6.98 5.678-12.657 12.657-12.657zm-28.847 0c6.979 0 12.657 5.678 12.657 12.657 0 6.98-5.678 12.657-12.657 12.657-6.98 0-12.657-5.678-12.657-12.657 0-6.98 5.677-12.658 12.657-12.658zm-50.522 5.97a6.97 6.97 0 0 0-6.962 6.963 6.97 6.97 0 0 0 6.962 6.962 6.97 6.97 0 0 0 6.963-6.962 6.97 6.97 0 0 0-6.963-6.962zm50.522-.275a6.97 6.97 0 0 0-6.963 6.962 6.97 6.97 0 0 0 6.963 6.962c3.839 0 6.961-3.124 6.961-6.962a6.969 6.969 0 0 0-6.961-6.962zm51.495 3.921l-3.088 8.4h6.33l-3.242-8.4z" fill="#000"/></g><defs><clipPath id="clip0"><path fill="#fff" d="M0 0h167.087v40H0z"/></clipPath></defs></svg>