<svg viewBox="0 0 161 48" fill="none" xmlns="http://www.w3.org/2000/svg"><path d="M21.902 0h1.254v4.917L30.702 0c3.832 2.409 6.474 4.337 7.927 5.786 1.471 1.449 2.434 2.807 2.888 4.075.472 1.268.708 3.133.708 5.596V32.76l-8.39 7.416c-2.234-.906-4.169-1.567-5.803-1.983a28.866 28.866 0 00-4.876-.815V48H12.994V36.89c-2.724.163-4.976.57-6.756 1.222-1.78.652-3.568 1.693-5.366 3.124L0 40.176c2.488-2.698 4.631-4.59 6.43-5.677 1.797-1.086 3.986-1.892 6.564-2.418-.018-2.462-.336-4.436-.953-5.921-.617-1.503-1.735-2.862-3.35-4.075-1.617-1.232-3.678-2.182-6.185-2.852v-1.141a32.656 32.656 0 003.433-1.929l7.055-4.618V9.643c0-1.774-.172-3.07-.517-3.884-.345-.833-.99-1.521-1.934-2.065-.945-.543-1.989-.815-3.133-.815-1.253 0-2.652.462-4.195 1.386l-.709-.842C3.778 2.246 5.022 1.385 6.238.843 7.473.28 8.835 0 10.325 0c1.652 0 3.15.353 4.495 1.06 1.362.688 2.324 1.557 2.887 2.607.581 1.032.89 2.436.927 4.21l3.268-2.2V0zm1.254 15.158c1.362.905 2.542 1.53 3.541 1.874a10.05 10.05 0 003.242.516 10.05 10.05 0 003.242-.516c1.035-.344 2.243-.969 3.623-1.874-.018-1.557-.254-2.852-.708-3.885-.454-1.032-1.426-2.146-2.915-3.34-1.471-1.196-3.642-2.51-6.511-3.94L23.156 6.33v8.829zm-1.253-8.014l-3.27 2.173v37.488h3.27V7.145zm-8.909 5.922l-5.938 3.912c1.235.543 2.288 1.123 3.16 1.738.872.598 1.798 1.395 2.778 2.391v-8.04zM23.156 25.02c1.453-.797 2.688-1.35 3.705-1.657a11.031 11.031 0 013.16-.462c1.071 0 2.097.154 3.078.462.999.29 2.234.842 3.705 1.657v-8.45c-1.508.869-2.77 1.457-3.787 1.765-.999.29-2.088.435-3.269.435-1.126 0-2.161-.136-3.105-.408-.945-.271-2.107-.806-3.487-1.602v8.258zm0 7.063a27.63 27.63 0 016.32.95c2.088.544 4.531 1.476 7.328 2.798v-9.263c-1.362-.924-2.543-1.548-3.542-1.874-.998-.344-2.079-.516-3.241-.516-1.163 0-2.252.172-3.27.516-.998.326-2.197.95-3.595 1.874v5.514zm44.377-16.898v20.32c-2.724 1.104-4.695 2.01-5.912 2.716a14.797 14.797 0 00-2.67 1.956c-2.633-1.594-4.812-2.699-6.538-3.315-1.307-.47-2.787-.742-4.44-.815l-.272-.543c.69-.58 1.126-1.104 1.307-1.575.255-.616.382-1.657.382-3.124V15.89c3.323-1.104 6.165-2.662 8.526-4.672 2.58 1.702 5.785 3.024 9.617 3.966zM54.893 32.87l7.11 2.907V18.499c-2.234-1.032-3.814-1.711-4.74-2.037-.654-.236-1.444-.435-2.37-.598V32.87zM84.586 1.25v.706c-1.434.742-2.451 1.657-3.05 2.743-.582 1.069-.873 2.699-.873 4.89v24.15l3.106 2.309 1.199-.978.68.977-5.448 4.13c-1.652-1.431-2.887-2.382-3.705-2.853-.817-.47-1.897-.896-3.241-1.276v-.598a3.284 3.284 0 001.171-1.168c.29-.471.49-1.023.6-1.657.036-.218.063-1.304.081-3.26V9.969c0-1.648-.063-2.788-.19-3.422a5.117 5.117 0 00-.763-1.848c-.382-.597-1.027-1.258-1.935-1.983l.436-.543c1.653.471 3.133 1.43 4.44 2.88 1.363-1.431 2.589-2.409 3.678-2.934 1.108-.525 2.38-.815 3.814-.87zm23.646 13.935v20.32c-2.724 1.104-4.694 2.01-5.911 2.716a14.816 14.816 0 00-2.67 1.956c-2.633-1.594-4.813-2.699-6.538-3.315-1.308-.47-2.788-.742-4.44-.815l-.273-.543c.69-.58 1.126-1.104 1.308-1.575.254-.616.381-1.657.381-3.124V15.89c3.324-1.104 6.166-2.662 8.527-4.672 2.579 1.702 5.784 3.024 9.616 3.966zM95.592 32.87l7.11 2.907V18.499c-2.234-1.032-3.814-1.711-4.74-2.037-.654-.236-1.444-.435-2.37-.598V32.87zm32.064-11.573l6.293 3.287V36.02c-1.526.145-2.906.516-4.141 1.114-1.235.598-2.633 1.612-4.195 3.043-1.344-.797-2.516-1.35-3.515-1.657a10.4 10.4 0 00-3.132-.462c-1.708 0-3.224.516-4.55 1.548-.49.38-.844.57-1.062.57-.2 0-.4-.099-.6-.298-.199-.2-.299-.399-.299-.598 0-.217.191-.507.572-.87.218-.216.59-.633 1.117-1.249l2.479-3.07 3.514-4.645-5.966-3.205V16.11c1.871-.58 3.333-1.223 4.386-1.929 1.072-.724 2.098-1.711 3.078-2.961 2.325.978 4.196 1.666 5.612 2.065 1.017.271 1.989.407 2.915.407 1.017 0 1.807-.217 2.37-.652.563-.453.845-.924.845-1.412 0-.327-.182-.652-.545-.978-.708-.634-1.063-1.25-1.063-1.848 0-.561.155-1.005.463-1.33.309-.345.654-.517 1.036-.517.508 0 .962.236 1.362.706.417.453.626 1.06.626 1.82 0 .78-.163 1.54-.49 2.282-.327.743-.953 1.703-1.88 2.88l-5.23 6.655zm-7.982 1.875l3.732 1.928 5.939-7.878c-1.217.345-2.27.516-3.16.516-2.234 0-4.404-.742-6.511-2.227v7.66zm4.686 2.471l-6.566 8.775c.799-.272 1.544-.471 2.234-.598s1.317-.19 1.88-.19c2.088 0 4.259.688 6.511 2.064v-7.877l-4.059-2.174zm33.834-13.256l.981.38c-.981 1.522-1.607 2.69-1.88 3.505-.254.797-.381 1.883-.381 3.26v11.572c0 1.92.145 3.123.436 3.613.308.47.672.706 1.089.706.218 0 .445-.055.681-.163.146-.09.572-.417 1.281-.978l.599.896-6.075 4.999c-1.398-1.087-2.334-2.056-2.806-2.907-.472-.87-.735-2.074-.79-3.613l-8.281 6.52c-3.106-2.536-4.659-5.035-4.659-7.498 0-1.648.336-3.196 1.008-4.645.89-1.902 2.425-4.12 4.604-6.655l-3.269-6.955.381-.76c.709.072 1.235.109 1.58.109 2.143 0 4.032-.852 5.667-2.554a19.799 19.799 0 004.331 1.874c1.58.471 2.788.707 3.623.707.382 0 .672-.064.872-.19.2-.145.536-.553 1.008-1.223zm-6.865 5.189l-9.317-2.853 3.324 7.009 5.993 2.798v-6.954zm0 8.067l-6.592-3.07c-1.017 2.21-1.526 4.148-1.526 5.814 0 2.934 1.335 5.352 4.005 7.253l4.113-3.314v-6.683z" fill="#000"/></svg>